# xmcd
#
# Track frame offsets:
# 150
# 14382
# 32197
# 48912
# 70062
# 98395
# 114832
# 136002
# 154345
# 169410
# 186545
# 217315
# 238257
# 255205
#
# Disc length: 3725 seconds
#
#
# Revision: 2
# Processed by: cddbd v1.5PL3 Copyright (c) Steve Scherf et al.
# Submitted via: FreeRIP 2.53 
#
DISCID=be0e8b0e
DTITLE=Dave Hole - Ticket To Chicago
DYEAR=1997
DGENRE=Blues
TTITLE0=Out Of Here
TTITLE1=You're Too Young
TTITLE2=Phone Line
TTITLE3=You Got The Blues
TTITLE4=My Bird Won't Sing
TTITLE5=Bermuda Triangle
TTITLE6=Wheeler Dealer
TTITLE7=Empty Train
TTITLE8=Why Can't You Be True?
TTITLE9=Beyond Jupiter
TTITLE10=Cold Blue Moon
TTITLE11=Outlaw
TTITLE12=Ain't No Justice
TTITLE13=Bullfrog Blues
EXTD=
EXTT0=
EXTT1=
EXTT2=
EXTT3=
EXTT4=
EXTT5=
EXTT6=
EXTT7=
EXTT8=
EXTT9=
EXTT10=
EXTT11=
EXTT12=
EXTT13=
PLAYORDER=
